<svg xmlns="http://www.w3.org/2000/svg" width="37.878" height="34.661" viewBox="0 0 37.878 34.661">
  <g id="Group_90" data-name="Group 90" transform="translate(-65 -359.304)">
    <path id="Path_1" data-name="Path 1" d="M37.546,38.584l-16.1-15.827a3.589,3.589,0,0,0-5.008,0L.332,38.584a1.11,1.11,0,1,0,1.556,1.583l1.253-1.232V51.57a4.835,4.835,0,0,0,4.83,4.83H29.907a4.835,4.835,0,0,0,4.83-4.83V38.935l1.253,1.232a1.11,1.11,0,1,0,1.556-1.583ZM32.518,51.57a2.614,2.614,0,0,1-2.611,2.611H7.971A2.614,2.614,0,0,1,5.36,51.57V36.754L17.99,24.34a1.337,1.337,0,0,1,.444-.289,1.363,1.363,0,0,1,1.352.2,1.338,1.338,0,0,1,.1.09l12.63,12.414V51.57Z" transform="translate(65 337.565)" fill="#fff"/>
    <path id="Path_2" data-name="Path 2" d="M152.336,183.09v3.571h-3.571a1.11,1.11,0,0,0-1.11,1.11V192.2a1.11,1.11,0,0,0,1.11,1.11h3.571v3.571a1.11,1.11,0,0,0,1.11,1.11h4.429a1.11,1.11,0,0,0,1.11-1.11v-3.571h3.571a1.11,1.11,0,0,0,1.11-1.11V187.77a1.11,1.11,0,0,0-1.11-1.11h-3.571V183.09a1.11,1.11,0,0,0-1.11-1.11h-4.429A1.11,1.11,0,0,0,152.336,183.09Zm2.219,4.681V184.2h2.209v3.571a1.11,1.11,0,0,0,1.11,1.11h3.571v2.21h-3.571a1.11,1.11,0,0,0-1.11,1.11v3.571h-2.209V192.2a1.11,1.11,0,0,0-1.11-1.11h-3.571v-2.21h3.571A1.11,1.11,0,0,0,154.555,187.77Z" transform="translate(-71.731 189.179)" fill="#fff"/>
  </g>
</svg>
