<svg xmlns="http://www.w3.org/2000/svg" width="33.625" height="33.625" viewBox="0 0 33.625 33.625">
  <g id="Group_92" data-name="Group 92" transform="translate(-311 -360)">
    <path id="Path_7" data-name="Path 7" d="M28.722,33.625H5.254A5.259,5.259,0,0,1,0,28.372V3.853A3.856,3.856,0,0,1,3.853,0H21.366a3.856,3.856,0,0,1,3.853,3.853V4.2h4.553a3.856,3.856,0,0,1,3.853,3.853V28.372A5.262,5.262,0,0,1,29,33.588,1.015,1.015,0,0,1,28.722,33.625ZM25.219,6.3V28.372a3.152,3.152,0,1,0,6.3,0V8.056A1.754,1.754,0,0,0,29.773,6.3ZM3.853,2.1A1.754,1.754,0,0,0,2.1,3.853V28.372a3.155,3.155,0,0,0,3.152,3.152H24.171a5.227,5.227,0,0,1-1.054-3.152V3.853A1.754,1.754,0,0,0,21.366,2.1Z" transform="translate(311 360)" fill="#fff"/>
    <path id="Path_8" data-name="Path 8" d="M10.356,11.406h-6.3A1.051,1.051,0,0,1,3,10.356v-6.3A1.051,1.051,0,0,1,4.051,3h6.3a1.051,1.051,0,0,1,1.051,1.051v6.3A1.051,1.051,0,0,1,10.356,11.406ZM5.1,9.3H9.3V5.1H5.1Z" transform="translate(312.203 361.203)" fill="#fff"/>
    <path id="Path_9" data-name="Path 9" d="M15.553,6.1h-3.5a1.051,1.051,0,1,1,0-2.1h3.5a1.051,1.051,0,1,1,0,2.1Z" transform="translate(315.412 361.604)" fill="#fff"/>
    <path id="Path_10" data-name="Path 10" d="M15.553,9.1h-3.5a1.051,1.051,0,1,1,0-2.1h3.5a1.051,1.051,0,1,1,0,2.1Z" transform="translate(315.412 362.807)" fill="#fff"/>
    <path id="Path_11" data-name="Path 11" d="M18.762,13.1H4.051a1.051,1.051,0,0,1,0-2.1H18.762a1.051,1.051,0,0,1,0,2.1Z" transform="translate(312.203 364.412)" fill="#fff"/>
    <path id="Path_12" data-name="Path 12" d="M18.762,16.852H4.051a1.051,1.051,0,0,1,0-2.1H18.762a1.051,1.051,0,0,1,0,2.1Z" transform="translate(312.203 365.916)" fill="#fff"/>
    <path id="Path_13" data-name="Path 13" d="M18.762,20.6H4.051a1.051,1.051,0,1,1,0-2.1H18.762a1.051,1.051,0,1,1,0,2.1Z" transform="translate(312.203 367.42)" fill="#fff"/>
  </g>
</svg>
